<svg width="38" height="39" viewBox="0 0 38 39" fill="none" xmlns="http://www.w3.org/2000/svg">
<path d="M29.6339 14.625L37.2531 3.96012C37.5092 3.6016 37.6697 3.16936 37.716 2.71318C37.7624 2.25701 37.6928 1.79544 37.5152 1.38163C37.3376 0.967815 37.0592 0.618586 36.7121 0.374155C36.3651 0.129723 35.9634 2.67112e-05 35.5534 0H2.17674C1.59943 0 1.04577 0.256807 0.637552 0.713927C0.229334 1.17105 0 1.79103 0 2.4375V36.5625C0 37.209 0.229334 37.829 0.637552 38.2861C1.04577 38.7432 1.59943 39 2.17674 39C2.75404 39 3.30771 38.7432 3.71592 38.2861C4.12414 37.829 4.35348 37.209 4.35348 36.5625V29.25H35.5534C35.9634 29.25 36.3651 29.1203 36.7121 28.8758C37.0592 28.6314 37.3376 28.2822 37.5152 27.8684C37.6928 27.4546 37.7624 26.993 37.716 26.5368C37.6697 26.0806 37.5092 25.6484 37.2531 25.2899L29.6339 14.625ZM4.35348 24.375V4.875H31.0243L25.1468 13.1024C24.8379 13.5345 24.6697 14.0715 24.6697 14.625C24.6697 15.1785 24.8379 15.7155 25.1468 16.1476L31.0243 24.375H4.35348Z" fill="#454545"/>
</svg>
