<svg width="38" height="38" viewBox="0 0 38 38" fill="none" xmlns="http://www.w3.org/2000/svg">
<path d="M37.8632 16.8837V7.76961C37.8632 7.06308 37.4854 6.27266 36.7296 5.39834C35.9739 4.52402 35.1388 3.80425 34.2244 3.23903C33.31 2.67382 32.5882 2.39121 32.0592 2.39121C32.0592 1.9673 31.9081 1.57871 31.6058 1.22545C31.3035 0.872187 30.971 0.695557 30.6082 0.695557H7.39221C7.02946 0.695557 6.69694 0.872187 6.39465 1.22545C6.09236 1.57871 5.94121 1.9673 5.94121 2.39121C5.4122 2.39121 4.69048 2.67382 3.77605 3.23903C2.86161 3.80425 2.02653 4.52402 1.2708 5.39834C0.515072 6.27266 0.137207 7.06308 0.137207 7.76961V16.6983C0.137207 17.3871 0.397934 18.023 0.919387 18.6059C1.44084 19.1888 2.14745 19.5597 3.03921 19.7187V34.6086C2.64623 34.6086 2.30615 34.7764 2.01897 35.112C1.7318 35.4476 1.58821 35.845 1.58821 36.3043C1.58821 36.7635 1.7318 37.1609 2.01897 37.4965C2.30615 37.8321 2.64623 37.9999 3.03921 37.9999H34.9612C35.3542 37.9999 35.6943 37.8321 35.9815 37.4965C36.2686 37.1609 36.4122 36.7635 36.4122 36.3043C36.4122 35.845 36.2686 35.4476 35.9815 35.112C35.6943 34.7764 35.3542 34.6086 34.9612 34.6086V19.7981C35.8681 19.6215 36.5785 19.2638 37.0924 18.7251C37.6063 18.1864 37.8632 17.5726 37.8632 16.8837ZM20.4512 22.739V34.6086H5.94121V19.7187C7.13526 19.2947 7.86076 18.9503 8.11771 18.6854C8.97924 19.5685 10.1884 20.0101 11.7452 20.0101C13.302 20.0101 14.5112 19.5685 15.3727 18.6854C16.2342 19.5685 17.4434 20.0101 19.0002 20.0101C20.557 20.0101 21.7662 19.5685 22.6277 18.6854C23.4893 19.5685 24.6984 20.0101 26.2552 20.0101C27.812 20.0101 29.0212 19.5685 29.8827 18.6854C30.1397 18.9503 30.8652 19.2947 32.0592 19.7187V34.6086H29.1572V22.739H20.4512ZM21.9022 24.4347H27.7062V34.6086H21.9022V24.4347ZM8.84321 16.9367L8.82054 6.94827C8.82054 5.92382 9.07371 5.19963 9.58005 4.77572C10.0864 4.35181 10.8006 4.12219 11.7225 4.08686H14.6472C14.6472 5.04067 14.6548 7.01451 14.6699 10.0084C14.685 13.0023 14.685 15.3117 14.6699 16.9367C14.1106 17.8199 13.1358 18.2615 11.7452 18.2615C10.3849 18.2615 9.41757 17.8199 8.84321 16.9367ZM23.3306 16.9367V4.08686H26.2326C26.5953 4.10452 26.8296 4.11777 26.9354 4.1266C27.0412 4.13543 27.2377 4.16193 27.5249 4.20609C27.812 4.25024 28.001 4.30323 28.0917 4.36505C28.1823 4.42687 28.3184 4.52844 28.4997 4.66974C28.6811 4.81105 28.802 4.97884 28.8625 5.17314C28.923 5.36743 28.9834 5.61471 29.0439 5.91499C29.1043 6.21526 29.1346 6.55969 29.1346 6.94827L29.1572 16.9367C29.0665 17.4136 28.7529 17.7757 28.2163 18.023C27.6798 18.2703 27.0261 18.3939 26.2552 18.3939C25.4844 18.3939 24.8269 18.2703 24.2828 18.023C23.7386 17.7757 23.4212 17.4136 23.3306 16.9367ZM8.84321 22.739V31.2173H17.5492V22.739H8.84321ZM10.2942 24.4347H16.0982V29.5216H10.2942V24.4347Z" fill="#454545"/>
</svg>
