<svg width="38" height="39" viewBox="0 0 38 39" fill="none" xmlns="http://www.w3.org/2000/svg">
<path d="M0.859222 0H2.62814V0.5824C5.09067 1.1518 5.4447 3.51455 5.58368 4.4174C5.6497 4.84445 5.78365 5.6797 5.94966 6.7028H36.7501C37.9688 6.7028 38.1053 7.87995 37.9462 8.53125L34.3329 25.0198C34.1744 25.6711 33.5072 26.2028 32.8532 26.2028H5.84842C5.1982 26.2028 4.66809 26.7494 4.66809 27.4215C4.66809 28.0936 5.1982 28.6403 5.84842 28.6403H35.3245C35.6372 28.6403 35.9371 28.7687 36.1583 28.9973C36.3794 29.2258 36.5036 29.5358 36.5036 29.859C36.5036 30.1823 36.3794 30.4923 36.1583 30.7208C35.9371 30.9494 35.6372 31.0778 35.3245 31.0778H33.7965C34.5343 31.4988 35.1493 32.1167 35.5776 32.867C36.0058 33.6173 36.2316 34.4726 36.2313 35.3438H35.0522C35.0522 37.362 33.4676 39 31.515 39C29.5625 39 27.9778 37.362 27.9778 35.3438H26.7988C26.7986 34.4725 27.0245 33.6172 27.4528 32.8669C27.8812 32.1166 28.4964 31.4988 29.2342 31.0778H12.5738C13.3117 31.4988 13.9269 32.1166 14.3552 32.8669C14.7836 33.6172 15.0095 34.4725 15.0093 35.3438H13.8302C13.8128 36.3017 13.4324 37.2143 12.7708 37.8853C12.1092 38.5564 11.2193 38.9323 10.2924 38.9323C9.3655 38.9323 8.4756 38.5564 7.81403 37.8853C7.15246 37.2143 6.77204 36.3017 6.75457 35.3438H5.5755C5.57543 34.4726 5.80126 33.6174 6.22948 32.8672C6.65771 32.1169 7.27268 31.499 8.01036 31.0778H5.84716C4.90918 31.0773 4.00977 30.6919 3.34653 30.0063C2.68328 29.3208 2.31045 28.3911 2.30995 27.4215C2.31003 26.9413 2.40162 26.4658 2.57949 26.0222C2.75736 25.5785 3.01802 25.1754 3.3466 24.8359C3.67518 24.4964 4.06524 24.2271 4.4945 24.0434C4.92376 23.8597 5.38382 23.7652 5.84842 23.7653H6.28672L4.77876 14.0738C4.3587 11.5141 3.45317 5.98455 3.24063 4.60915C3.13372 3.9143 3.02997 3.42615 2.62814 3.1525V3.6556H0.859222C0.703213 3.65509 0.553722 3.59084 0.443348 3.47688C0.332973 3.36291 0.270664 3.20846 0.27 3.0472V0.6097C0.270332 0.448215 0.3325 0.293433 0.442909 0.179185C0.553318 0.064937 0.702995 0.000515014 0.859222 0ZM31.515 37.1722C31.984 37.1717 32.4337 36.9789 32.7653 36.6361C33.0969 36.2933 33.2835 35.8285 33.284 35.3438H29.7467C29.7472 35.8284 29.9337 36.2931 30.2652 36.6359C30.5967 36.9786 31.0462 37.1715 31.515 37.1722ZM10.2918 37.1722C10.7609 37.1719 11.2107 36.9791 11.5424 36.6363C11.8742 36.2935 12.0608 35.8286 12.0613 35.3438H8.52286C8.52369 35.8284 8.71033 36.293 9.04188 36.6357C9.37344 36.9784 9.82289 37.1713 10.2918 37.1722ZM11.7425 9.7461C11.7218 9.5809 11.6443 9.42889 11.5243 9.31771C11.4043 9.20654 11.2496 9.14358 11.0885 9.1403H7.35511C7.03063 9.1403 6.80488 9.4107 6.85581 9.74285L7.22557 12.194C7.27462 12.5255 7.58212 12.7965 7.90723 12.7965H11.4683C11.5433 12.7986 11.6179 12.7838 11.6868 12.7533C11.7557 12.7227 11.8175 12.6771 11.8677 12.6195C11.918 12.562 11.9556 12.4938 11.9779 12.4198C12.0003 12.3458 12.0068 12.2676 11.9972 12.1907L11.7425 9.7461ZM12.377 15.8398C12.3559 15.6748 12.2783 15.523 12.1584 15.4119C12.0385 15.3008 11.884 15.2377 11.723 15.234H8.2751C7.94999 15.234 7.72486 15.5044 7.77391 15.8366L8.05249 17.6787C8.10217 18.0102 8.40904 18.2812 8.73415 18.2812H12.0399C12.1149 18.2831 12.1893 18.2682 12.2581 18.2375C12.327 18.2069 12.3886 18.1613 12.4388 18.1038C12.489 18.0462 12.5266 17.9782 12.5491 17.9043C12.5715 17.8304 12.5782 17.7523 12.5688 17.6754L12.377 15.8398ZM34.9403 12.205L35.5377 9.7318C35.6157 9.4055 35.4132 9.1403 35.0881 9.1403H30.6491C30.3234 9.1403 30.0297 9.41265 29.9951 9.7461L29.7411 12.1914C29.7317 12.2682 29.7384 12.3462 29.7608 12.4201C29.7832 12.4939 29.8207 12.562 29.8709 12.6195C29.921 12.677 29.9826 12.7226 30.0513 12.7533C30.1201 12.784 30.1944 12.7989 30.2693 12.7972H34.2065C34.5309 12.7972 34.8617 12.53 34.9403 12.205ZM32.8834 18.2812C33.2079 18.2812 33.5386 18.0147 33.6166 17.6897L34.0669 15.8262C34.1455 15.4999 33.9442 15.2347 33.6191 15.2347H30.0165C29.6914 15.2347 29.3971 15.507 29.3625 15.8405L29.1714 17.6761C29.1618 17.7529 29.1685 17.831 29.1908 17.9049C29.2132 17.9788 29.2507 18.0469 29.3009 18.1044C29.351 18.1619 29.4126 18.2076 29.4815 18.2382C29.5503 18.2688 29.6247 18.2837 29.6996 18.2819H32.8834V18.2812ZM29.1299 23.7659H31.5603C31.8867 23.7659 32.2156 23.4995 32.2942 23.1744L32.7444 21.3109C32.8224 20.9846 32.6212 20.7194 32.2954 20.7194H29.4468C29.1217 20.7194 28.8274 20.9917 28.7915 21.3252L28.6016 23.1608C28.5921 23.2376 28.5987 23.3156 28.6211 23.3895C28.6434 23.4634 28.681 23.5314 28.7312 23.5889C28.7813 23.6464 28.843 23.6919 28.9118 23.7225C28.9806 23.7531 29.055 23.7679 29.1299 23.7659ZM21.9033 23.1562C21.9039 23.318 21.9665 23.4728 22.0772 23.5871C22.1879 23.7013 22.3379 23.7656 22.4944 23.7659H25.57C25.731 23.7625 25.8855 23.6995 26.0054 23.5883C26.1253 23.4772 26.2026 23.3252 26.2234 23.1601L26.4145 21.3245C26.4243 21.2477 26.4178 21.1697 26.3956 21.0957C26.3733 21.0217 26.3359 20.9536 26.2857 20.896C26.2356 20.8385 26.174 20.7928 26.1051 20.7622C26.0363 20.7316 25.9619 20.7168 25.8869 20.7188H22.4944C22.3378 20.7188 22.1877 20.7829 22.0768 20.8972C21.966 21.0116 21.9036 21.1666 21.9033 21.3284V23.1562ZM21.9033 17.6722C21.9039 17.8339 21.9665 17.9888 22.0772 18.103C22.1879 18.2173 22.3379 18.2816 22.4944 18.2819H26.1404C26.4648 18.2819 26.7579 18.0096 26.7944 17.6761L26.9843 15.8405C26.9939 15.7637 26.9874 15.6857 26.9651 15.6118C26.9428 15.5378 26.9053 15.4698 26.8552 15.4122C26.8051 15.3547 26.7435 15.309 26.6747 15.2784C26.6059 15.2477 26.5316 15.2328 26.4567 15.2347H22.4944C22.3378 15.2347 22.1877 15.2989 22.0768 15.4132C21.966 15.5275 21.9036 15.6826 21.9033 15.8444V17.6722ZM21.9033 12.1875C21.9039 12.3492 21.9665 12.5041 22.0772 12.6183C22.1879 12.7326 22.3379 12.7969 22.4944 12.7972H26.7088C26.87 12.7939 27.0246 12.731 27.1446 12.6198C27.2646 12.5086 27.3421 12.3566 27.3628 12.1914L27.6169 9.7461C27.6264 9.66928 27.6198 9.59124 27.5974 9.51732C27.5751 9.4434 27.5375 9.37534 27.4874 9.31781C27.4372 9.26028 27.3756 9.21463 27.3068 9.184C27.238 9.15336 27.1636 9.13845 27.0887 9.1403H22.4937C22.3372 9.1403 22.187 9.20449 22.0762 9.3188C21.9654 9.4331 21.903 9.58818 21.9026 9.75V12.1875H21.9033ZM15.5149 23.1601C15.5358 23.3253 15.6132 23.4772 15.7332 23.5884C15.8532 23.6995 16.0078 23.7625 16.1689 23.7659H18.9484C19.1047 23.7656 19.2546 23.7013 19.3653 23.587C19.4759 23.4728 19.5383 23.3179 19.5388 23.1562V21.3278C19.5385 21.1661 19.4762 21.0111 19.3655 20.8968C19.2548 20.7825 19.1048 20.7183 18.9484 20.7181H15.852C15.5275 20.7181 15.2885 20.9904 15.3237 21.3239L15.5149 23.1601ZM14.9452 17.6754C14.9661 17.8406 15.0435 17.9925 15.1635 18.1037C15.2835 18.2148 15.4381 18.2778 15.5992 18.2812H18.9484C19.1047 18.2809 19.2546 18.2166 19.3653 18.1023C19.4759 17.9881 19.5383 17.8332 19.5388 17.6715V15.8431C19.5385 15.6814 19.4762 15.5264 19.3655 15.4121C19.2548 15.2978 19.1048 15.2336 18.9484 15.2334H15.2822C14.9571 15.2334 14.7188 15.5057 14.7546 15.8392L14.9452 17.6754ZM14.3755 12.1914C14.3963 12.3565 14.4738 12.5085 14.5938 12.6196C14.7138 12.7308 14.8683 12.7938 15.0294 12.7972H18.9484C19.1047 12.7969 19.2546 12.7325 19.3653 12.6183C19.4759 12.504 19.5383 12.3492 19.5388 12.1875V9.75C19.5385 9.58829 19.4762 9.43331 19.3655 9.31903C19.2548 9.20474 19.1048 9.14047 18.9484 9.1403H14.649C14.3239 9.1403 14.0856 9.41265 14.1201 9.7461L14.3755 12.1914ZM9.8277 23.7659V23.7614L9.83273 23.7659H12.6097C12.6279 23.7659 12.6436 23.7568 12.6619 23.7542C12.665 23.7321 12.665 23.7101 12.6688 23.6867L12.6965 23.7465C12.6888 23.7486 12.681 23.7503 12.6732 23.7516C12.9631 23.7172 13.1706 23.4695 13.1373 23.1601L12.9474 21.3245C12.9262 21.1595 12.8487 21.0077 12.7288 20.8966C12.6088 20.7855 12.4544 20.7224 12.2934 20.7188H9.10139C8.77628 20.7188 8.55242 20.9891 8.60147 21.3213L8.88004 23.1634C8.92846 23.4949 9.23533 23.7659 9.56044 23.7659H9.8277Z" fill="#454545"/>
</svg>
