<svg width="29" height="31" viewBox="0 0 29 31" fill="none" xmlns="http://www.w3.org/2000/svg">
<path d="M1.57208 17.125H11.0046C11.4215 17.125 11.8214 16.9538 12.1162 16.649C12.411 16.3443 12.5767 15.931 12.5767 15.5V2.5C12.5767 2.06902 12.411 1.6557 12.1162 1.35095C11.8214 1.0462 11.4215 0.875 11.0046 0.875H1.57208C1.15514 0.875 0.755275 1.0462 0.460452 1.35095C0.16563 1.6557 0 2.06902 0 2.5V15.5C0 15.931 0.16563 16.3443 0.460452 16.649C0.755275 16.9538 1.15514 17.125 1.57208 17.125ZM0 28.5C0 28.931 0.16563 29.3443 0.460452 29.649C0.755275 29.9538 1.15514 30.125 1.57208 30.125H11.0046C11.4215 30.125 11.8214 29.9538 12.1162 29.649C12.411 29.3443 12.5767 28.931 12.5767 28.5V22C12.5767 21.569 12.411 21.1557 12.1162 20.851C11.8214 20.5462 11.4215 20.375 11.0046 20.375H1.57208C1.15514 20.375 0.755275 20.5462 0.460452 20.851C0.16563 21.1557 0 21.569 0 22V28.5ZM15.7208 28.5C15.7208 28.931 15.8865 29.3443 16.1813 29.649C16.4761 29.9538 16.876 30.125 17.2929 30.125H26.7254C27.1424 30.125 27.5422 29.9538 27.837 29.649C28.1319 29.3443 28.2975 28.931 28.2975 28.5V17.125C28.2975 16.694 28.1319 16.2807 27.837 15.976C27.5422 15.6712 27.1424 15.5 26.7254 15.5H17.2929C16.876 15.5 16.4761 15.6712 16.1813 15.976C15.8865 16.2807 15.7208 16.694 15.7208 17.125V28.5ZM17.2929 12.25H26.7254C27.1424 12.25 27.5422 12.0788 27.837 11.774C28.1319 11.4693 28.2975 11.056 28.2975 10.625V2.5C28.2975 2.06902 28.1319 1.6557 27.837 1.35095C27.5422 1.0462 27.1424 0.875 26.7254 0.875H17.2929C16.876 0.875 16.4761 1.0462 16.1813 1.35095C15.8865 1.6557 15.7208 2.06902 15.7208 2.5V10.625C15.7208 11.056 15.8865 11.4693 16.1813 11.774C16.4761 12.0788 16.876 12.25 17.2929 12.25Z" fill="#454545"/>
</svg>
