<svg width="38" height="39" viewBox="0 0 38 39" fill="none" xmlns="http://www.w3.org/2000/svg">
<path d="M8.01762 0C7.14205 0 6.30233 0.422977 5.6832 1.17588C5.06407 1.92878 4.71625 2.94994 4.71625 4.01471V9.75C4.71625 11.9661 6.19527 13.7647 8.01762 13.7647H12.7339C13.6095 13.7647 14.4492 13.3417 15.0683 12.5888C15.6874 11.8359 16.0352 10.8148 16.0352 9.75V4.01471C16.0352 2.94994 15.6874 1.92878 15.0683 1.17588C14.4492 0.422977 13.6095 0 12.7339 0H8.01762ZM21.6947 4.01471C21.6947 1.79859 23.1738 0 24.9961 0H29.7124C31.5347 0 33.0137 1.79859 33.0137 4.01471V9.75C33.0137 10.8148 32.6659 11.8359 32.0468 12.5888C31.4277 13.3417 30.588 13.7647 29.7124 13.7647H24.9961C24.1205 13.7647 23.2808 13.3417 22.6617 12.5888C22.0426 11.8359 21.6947 10.8148 21.6947 9.75V4.01471ZM24.9961 3.44118C24.871 3.44118 24.7511 3.5016 24.6626 3.60916C24.5742 3.71672 24.5245 3.8626 24.5245 4.01471V9.75C24.5245 10.0666 24.7358 10.3235 24.9961 10.3235H29.7124C29.8375 10.3235 29.9574 10.2631 30.0459 10.1555C30.1343 10.048 30.184 9.90211 30.184 9.75V4.01471C30.184 3.8626 30.1343 3.71672 30.0459 3.60916C29.9574 3.5016 29.8375 3.44118 29.7124 3.44118H24.9961ZM9.4325 32.1176C10.183 32.1176 10.9028 31.7551 11.4334 31.1097C11.9641 30.4644 12.2622 29.5891 12.2622 28.6765C12.2622 27.7638 11.9641 26.8885 11.4334 26.2432C10.9028 25.5978 10.183 25.2353 9.4325 25.2353C8.682 25.2353 7.96225 25.5978 7.43156 26.2432C6.90088 26.8885 6.60275 27.7638 6.60275 28.6765C6.60275 29.5891 6.90088 30.4644 7.43156 31.1097C7.96225 31.7551 8.682 32.1176 9.4325 32.1176ZM21.6947 28.6765C21.6947 29.5891 21.3966 30.4644 20.8659 31.1097C20.3353 31.7551 19.6155 32.1176 18.865 32.1176C18.1145 32.1176 17.3947 31.7551 16.8641 31.1097C16.3334 30.4644 16.0352 29.5891 16.0352 28.6765C16.0352 27.7638 16.3334 26.8885 16.8641 26.2432C17.3947 25.5978 18.1145 25.2353 18.865 25.2353C19.6155 25.2353 20.3353 25.5978 20.8659 26.2432C21.3966 26.8885 21.6947 27.7638 21.6947 28.6765ZM28.2975 32.1176C29.048 32.1176 29.7678 31.7551 30.2984 31.1097C30.8291 30.4644 31.1273 29.5891 31.1273 28.6765C31.1273 27.7638 30.8291 26.8885 30.2984 26.2432C29.7678 25.5978 29.048 25.2353 28.2975 25.2353C27.547 25.2353 26.8272 25.5978 26.2966 26.2432C25.7659 26.8885 25.4678 27.7638 25.4678 28.6765C25.4678 29.5891 25.7659 30.4644 26.2966 31.1097C26.8272 31.7551 27.547 32.1176 28.2975 32.1176ZM0 28.6765C0 25.9385 0.8944 23.3127 2.48644 21.3766C4.07849 19.4406 6.23776 18.3529 8.48925 18.3529H29.2407C31.4922 18.3529 33.6515 19.4406 35.2436 21.3766C36.8356 23.3127 37.73 25.9385 37.73 28.6765C37.73 31.4144 36.8356 34.0403 35.2436 35.9763C33.6515 37.9123 31.4922 39 29.2407 39H8.48925C6.23776 39 4.07849 37.9123 2.48644 35.9763C0.8944 34.0403 0 31.4144 0 28.6765ZM8.48925 21.7941C6.98826 21.7941 5.54874 22.5192 4.48738 23.8099C3.42602 25.1006 2.82975 26.8512 2.82975 28.6765C2.82975 30.5018 3.42602 32.2523 4.48738 33.543C5.54874 34.8337 6.98826 35.5588 8.48925 35.5588H29.2407C30.7417 35.5588 32.1813 34.8337 33.2426 33.543C34.304 32.2523 34.9002 30.5018 34.9002 28.6765C34.9002 26.8512 34.304 25.1006 33.2426 23.8099C32.1813 22.5192 30.7417 21.7941 29.2407 21.7941H8.48925Z" fill="#454545"/>
</svg>
