<svg width="38" height="39" viewBox="0 0 38 39" fill="none" xmlns="http://www.w3.org/2000/svg">
<path d="M32.585 0H15.435C14.0705 0 12.7618 0.616338 11.7969 1.71343C10.8321 2.81051 10.29 4.29848 10.29 5.85V19.5C10.29 21.0515 10.8321 22.5395 11.7969 23.6366C12.7618 24.7337 14.0705 25.35 15.435 25.35H32.585C33.9495 25.35 35.2582 24.7337 36.2231 23.6366C37.1879 22.5395 37.73 21.0515 37.73 19.5V5.85C37.73 4.29848 37.1879 2.81051 36.2231 1.71343C35.2582 0.616338 33.9495 0 32.585 0ZM34.3 19.5C34.3 20.0172 34.1193 20.5132 33.7977 20.8789C33.4761 21.2446 33.0398 21.45 32.585 21.45H15.435C14.9802 21.45 14.5439 21.2446 14.2223 20.8789C13.9007 20.5132 13.72 20.0172 13.72 19.5V5.85C13.72 5.33283 13.9007 4.83684 14.2223 4.47114C14.5439 4.10545 14.9802 3.9 15.435 3.9H32.585C33.0398 3.9 33.4761 4.10545 33.7977 4.47114C34.1193 4.83684 34.3 5.33283 34.3 5.85V19.5ZM28.2975 11.7C27.6626 11.7024 27.0512 11.9736 26.5825 12.4605C26.2137 12.0794 25.7555 11.8282 25.2636 11.7376C24.7716 11.647 24.2671 11.7208 23.8114 11.9501C23.3557 12.1794 22.9683 12.5542 22.6964 13.0291C22.4245 13.5039 22.2797 14.0584 22.2797 14.625C22.2797 15.1916 22.4245 15.7461 22.6964 16.2209C22.9683 16.6958 23.3557 17.0706 23.8114 17.2999C24.2671 17.5292 24.7716 17.603 25.2636 17.5124C25.7555 17.4218 26.2137 17.1706 26.5825 16.7895C26.8922 17.1096 27.2659 17.3389 27.6712 17.4575C28.0765 17.5762 28.5011 17.5807 28.9082 17.4705C29.3154 17.3603 29.6927 17.1389 30.0076 16.8254C30.3224 16.5119 30.5652 16.1158 30.7149 15.6715C30.8647 15.2271 30.9168 14.7479 30.8668 14.2755C30.8168 13.803 30.6662 13.3516 30.428 12.9603C30.1898 12.569 29.8713 12.2498 29.5 12.0301C29.1288 11.8105 28.716 11.6972 28.2975 11.7ZM25.725 29.25C25.2702 29.25 24.8339 29.4554 24.5123 29.8211C24.1907 30.1868 24.01 30.6828 24.01 31.2V33.15C24.01 33.6672 23.8293 34.1632 23.5077 34.5289C23.1861 34.8946 22.7498 35.1 22.295 35.1H5.145C4.69015 35.1 4.25394 34.8946 3.93231 34.5289C3.61069 34.1632 3.43 33.6672 3.43 33.15V25.35H5.145C5.59985 25.35 6.03606 25.1446 6.35769 24.7789C6.67931 24.4132 6.86 23.9172 6.86 23.4C6.86 22.8828 6.67931 22.3868 6.35769 22.0211C6.03606 21.6554 5.59985 21.45 5.145 21.45H3.43V19.5C3.43 18.9828 3.61069 18.4868 3.93231 18.1211C4.25394 17.7554 4.69015 17.55 5.145 17.55C5.59985 17.55 6.03606 17.3446 6.35769 16.9789C6.67931 16.6132 6.86 16.1172 6.86 15.6C6.86 15.0828 6.67931 14.5868 6.35769 14.2211C6.03606 13.8554 5.59985 13.65 5.145 13.65C3.78046 13.65 2.47181 14.2663 1.50694 15.3634C0.542061 16.4605 0 17.9485 0 19.5V33.15C0 34.7015 0.542061 36.1895 1.50694 37.2866C2.47181 38.3837 3.78046 39 5.145 39H22.295C23.6595 39 24.9682 38.3837 25.9331 37.2866C26.8979 36.1895 27.44 34.7015 27.44 33.15V31.2C27.44 30.6828 27.2593 30.1868 26.9377 29.8211C26.6161 29.4554 26.1798 29.25 25.725 29.25ZM8.575 31.2H10.29C10.7448 31.2 11.1811 30.9946 11.5027 30.6289C11.8243 30.2632 12.005 29.7672 12.005 29.25C12.005 28.7328 11.8243 28.2368 11.5027 27.8711C11.1811 27.5054 10.7448 27.3 10.29 27.3H8.575C8.12015 27.3 7.68394 27.5054 7.36231 27.8711C7.04069 28.2368 6.86 28.7328 6.86 29.25C6.86 29.7672 7.04069 30.2632 7.36231 30.6289C7.68394 30.9946 8.12015 31.2 8.575 31.2Z" fill="#454545"/>
</svg>
