<svg width="315" height="317" viewBox="0 0 315 317" fill="none" xmlns="http://www.w3.org/2000/svg">
<g style="mix-blend-mode:hard-light" filter="url(#filter0_f)">
<rect x="36" y="36" width="243" height="245" rx="12" fill="url(#paint0_linear)"/>
</g>
<g filter="url(#filter1_d)">
<rect x="31" y="22" width="253.987" height="246.716" rx="12" fill="url(#paint1_linear)"/>
</g>
<path d="M271.29 269L284.905 251.091C284.905 251.091 285.118 99.2633 284.905 98.1416C284.905 98.1416 274.546 86.4023 272.752 85.1019C272.38 84.7807 271.929 84.5387 271.433 84.3945L261.699 269H271.29ZM222.103 164.699C222.103 164.699 213.23 160.676 202.727 160.676C186.898 160.676 186.3 169.272 186.3 171.544C186.3 183.269 221.677 187.878 221.677 215.644C221.677 237.486 205.93 251.441 184.465 251.441C158.731 251.441 145.803 237.486 145.803 237.486L152.841 217.616C152.841 217.616 166.449 227.776 177.763 227.776C185.145 227.776 188.43 222.603 188.43 218.88C188.43 203.475 159.411 202.768 159.411 177.389C159.026 156.067 176.567 135.296 212.157 135.296C225.897 135.296 232.639 138.719 232.639 138.719L222.316 164.62L222.103 164.699ZM216.213 64.8882C217.663 64.8882 219.154 65.2598 220.604 66.1887C209.847 70.6186 198.073 81.8222 193.207 104.222C186.373 106.162 179.5 107.998 172.594 109.731C178.23 92.7257 191.921 65.0026 216.204 65.0026L216.213 64.8882ZM229.698 92.9829V94.2834C221.464 96.4769 212.37 98.8991 203.538 101.278C208.618 84.3445 218.089 76.0847 226.323 72.998C228.412 77.7638 229.69 84.2016 229.69 92.9829H229.698ZM235.58 71.7404C243.134 72.4121 248.042 79.9645 251.155 88.4529C247.354 89.5318 243.134 90.6465 238.522 91.9112V89.5318C238.522 82.351 237.457 76.4705 235.58 71.7047V71.7404ZM268.27 84.0158C268.016 84.0158 267.59 84.2016 267.418 84.2016C267.205 84.2016 264.264 84.9089 259.61 86.2093C254.998 74.4484 246.764 63.6235 232.213 63.6235H230.935C226.757 59.0078 221.636 57 217.237 57C183.31 57 167.096 93.9547 162.017 112.711C148.957 116.169 139.486 118.741 138.421 119.113C131.039 121.156 130.826 121.349 129.974 127.408C129.163 131.803 110 261.38 110 261.38L164.423 269H256.448L268.27 84.0158Z" fill="#C2C2C2" fill-opacity="0.45"/>
<defs>
<filter id="filter0_f" x="0" y="0" width="315" height="317" filterUnits="userSpaceOnUse" color-interpolation-filters="sRGB">
<feFlood flood-opacity="0" result="BackgroundImageFix"/>
<feBlend mode="normal" in="SourceGraphic" in2="BackgroundImageFix" result="shape"/>
<feGaussianBlur stdDeviation="18" result="effect1_foregroundBlur"/>
</filter>
<filter id="filter1_d" x="27" y="22" width="261.987" height="254.716" filterUnits="userSpaceOnUse" color-interpolation-filters="sRGB">
<feFlood flood-opacity="0" result="BackgroundImageFix"/>
<feColorMatrix in="SourceAlpha" type="matrix" values="0 0 0 0 0 0 0 0 0 0 0 0 0 0 0 0 0 0 127 0"/>
<feOffset dy="4"/>
<feGaussianBlur stdDeviation="2"/>
<feColorMatrix type="matrix" values="0 0 0 0 0 0 0 0 0 0 0 0 0 0 0 0 0 0 0.25 0"/>
<feBlend mode="normal" in2="BackgroundImageFix" result="effect1_dropShadow"/>
<feBlend mode="normal" in="SourceGraphic" in2="effect1_dropShadow" result="shape"/>
</filter>
<linearGradient id="paint0_linear" x1="75.3722" y1="239.903" x2="363.913" y2="-243.477" gradientUnits="userSpaceOnUse">
<stop stop-color="#2ABDBD"/>
<stop offset="1" stop-color="#4200FF" stop-opacity="0"/>
</linearGradient>
<linearGradient id="paint1_linear" x1="72.1523" y1="227.331" x2="357.472" y2="-268.789" gradientUnits="userSpaceOnUse">
<stop stop-color="#2ABDBD"/>
<stop offset="1" stop-color="#4200FF" stop-opacity="0"/>
</linearGradient>
</defs>
</svg>
